<svg id="Layer_1" data-name="Layer 1" xmlns="http://www.w3.org/2000/svg" viewBox="0 0 197.63 41.66"><defs><style>.cls-1{fill:#00acd8;}.cls-2{fill:#0082ca;}.cls-3{fill:#53575a;}</style></defs><polygon class="cls-1" points="28.89 28.57 38.82 28.57 31.08 20.83 21.14 20.83 21.23 20.91 28.89 28.57"/><polygon class="cls-1" points="38.82 10.9 31.08 3.16 21.14 3.16 28.89 10.9 38.82 10.9"/><polygon class="cls-1" points="21.14 10.9 13.4 3.16 3.47 3.16 11.22 10.9 21.14 10.9"/><polygon class="cls-1" points="21.17 28.57 13.42 20.83 3.49 20.83 11.22 28.57 21.17 28.57"/><polygon class="cls-2" points="28.89 38.51 28.89 38.51 28.89 28.57 21.23 20.91 21.14 20.83 21.14 30.76 28.89 38.51"/><polygon class="cls-2" points="28.89 20.83 28.89 20.83 28.89 10.9 21.14 3.16 21.14 13.09 28.89 20.83"/><polygon class="cls-2" points="11.21 20.83 11.22 20.83 11.22 10.9 3.47 3.16 3.47 13.09 11.21 20.83"/><polygon class="cls-2" points="11.22 38.48 11.22 28.57 3.49 20.83 3.49 30.76 11.22 38.48"/><path class="cls-3" d="M62.28,9.26a7.08,7.08,0,0,0-3,.64,8.48,8.48,0,0,0-2.46,1.71,8,8,0,0,0-1.67,2.48,7.23,7.23,0,0,0,0,5.86,7.87,7.87,0,0,0,1.67,2.47,8.33,8.33,0,0,0,2.46,1.72,7.08,7.08,0,0,0,3,.64,7.32,7.32,0,0,0,1.79-.23,9,9,0,0,0,1.71-.64,8.53,8.53,0,0,0,1.48-1,6.82,6.82,0,0,0,1.14-1.14l1.47,1.5a10.46,10.46,0,0,1-3.33,2.6,9.84,9.84,0,0,1-8.1.19A10,10,0,0,1,55.31,24a9.82,9.82,0,0,1-2.11-3.13,9.84,9.84,0,0,1,0-7.68,9.82,9.82,0,0,1,2.11-3.13,10,10,0,0,1,3.13-2.11,9.84,9.84,0,0,1,8.1.19,10.46,10.46,0,0,1,3.33,2.6l-1.5,1.47A5.94,5.94,0,0,0,67.23,11a8.55,8.55,0,0,0-1.48-.92,9.77,9.77,0,0,0-1.69-.63A7.18,7.18,0,0,0,62.28,9.26Z"/><path class="cls-3" d="M71.21,19.88a7,7,0,0,1,2-5,7.2,7.2,0,0,1,2.23-1.51,6.76,6.76,0,0,1,2.72-.56,6.87,6.87,0,0,1,2.94.64,7.16,7.16,0,0,1,2.32,1.73l1.8-2V26.55H83.13V24.83a7,7,0,0,1-4.93,2.05,6.92,6.92,0,0,1-2.72-.55,7,7,0,0,1-4.27-6.45Zm2.09,0a4.8,4.8,0,0,0,.38,1.89,5.05,5.05,0,0,0,1,1.55,4.9,4.9,0,0,0,6.93,0,4.77,4.77,0,0,0,1.44-3.44,4.91,4.91,0,0,0-1.42-3.47A4.91,4.91,0,0,0,78.18,15a4.64,4.64,0,0,0-1.9.38,4.83,4.83,0,0,0-1.55,1.05,5.05,5.05,0,0,0-1,1.55A4.87,4.87,0,0,0,73.3,19.88Z"/><path class="cls-3" d="M90.32,15.6a6.78,6.78,0,0,1,1-1,6.86,6.86,0,0,1,1.25-.88A7,7,0,0,1,94,13.1a5.7,5.7,0,0,1,1.59-.22,6.89,6.89,0,0,1,2.72.55l-.65,2a3.48,3.48,0,0,0-1-.34A6.19,6.19,0,0,0,95.46,15a3.83,3.83,0,0,0-1.94.51A5.35,5.35,0,0,0,92,16.75a5.74,5.74,0,0,0-.94,1.56,4.12,4.12,0,0,0-.33,1.49v6.75H88.63V13.21Z"/><path class="cls-3" d="M99,19.88a6.94,6.94,0,0,1,4.27-6.45,7,7,0,0,1,5.66.09,7,7,0,0,1,2.32,1.73l1.8-2V27.5a6.76,6.76,0,0,1-.56,2.72A7.25,7.25,0,0,1,111,32.46,7,7,0,0,1,108.72,34a6.75,6.75,0,0,1-2.72.55,6.94,6.94,0,0,1-2.3-.38,7.21,7.21,0,0,1-2-1.06L103,31.31a4.88,4.88,0,0,0,1.25.75,4.48,4.48,0,0,0,1.77.32,4.63,4.63,0,0,0,2-.44,5.16,5.16,0,0,0,1.54-1.13,4.94,4.94,0,0,0,1-1.57,4.68,4.68,0,0,0,.34-1.74V24.86a6.6,6.6,0,0,1-2.22,1.48,6.79,6.79,0,0,1-2.71.54,6.92,6.92,0,0,1-2.72-.55A7,7,0,0,1,99,19.88Zm2.12,0a4.88,4.88,0,0,0,.38,1.9,4.9,4.9,0,0,0,2.6,2.62,4.8,4.8,0,0,0,1.89.38,4.9,4.9,0,0,0,1.91-.38,5.15,5.15,0,0,0,1.57-1,4.84,4.84,0,0,0,1-1.57,4.72,4.72,0,0,0,.39-1.9,4.63,4.63,0,0,0-.39-1.89,5,5,0,0,0-1-1.56,5,5,0,0,0-1.57-1A4.73,4.73,0,0,0,106,15a4.63,4.63,0,0,0-1.89.39,4.86,4.86,0,0,0-1.55,1,5.22,5.22,0,0,0-1,1.56A4.8,4.8,0,0,0,101.1,19.88Z"/><path class="cls-3" d="M122.55,12.85a6.8,6.8,0,0,1,2.73.56,7.32,7.32,0,0,1,2.23,1.51A7.25,7.25,0,0,1,129,17.16a6.89,6.89,0,0,1,0,5.44,7.2,7.2,0,0,1-1.51,2.23,7,7,0,0,1-7.68,1.5,7,7,0,0,1-3.73-9.17,6.89,6.89,0,0,1,1.5-2.24,7.2,7.2,0,0,1,2.23-1.51A6.76,6.76,0,0,1,122.55,12.85Zm0,11.9a4.87,4.87,0,0,0,1.92-.38,5.17,5.17,0,0,0,1.56-1,4.79,4.79,0,0,0,1-1.56,4.87,4.87,0,0,0,0-3.82,4.87,4.87,0,0,0-2.6-2.6,5,5,0,0,0-3.82,0,4.53,4.53,0,0,0-1.55,1.05,5,5,0,0,0-1,1.55,5,5,0,0,0,0,3.82,5,5,0,0,0,1,1.56,4.78,4.78,0,0,0,1.55,1A4.88,4.88,0,0,0,122.55,24.75Z"/><path class="cls-3" d="M141,7.49V9.61h-5V26.55h-2.12V9.61h-5V7.49Z"/><path class="cls-3" d="M146.76,12.85a6.24,6.24,0,0,1,2.61.56,6.76,6.76,0,0,1,2.13,1.51,7.6,7.6,0,0,1,1.43,2.24,7.09,7.09,0,0,1,.53,2.72,6.83,6.83,0,0,1-.17,1.5H142.43a4.81,4.81,0,0,0,1.66,2.43,4.61,4.61,0,0,0,1.24.7,4,4,0,0,0,1.37.24,9.36,9.36,0,0,0,1.61-.12,6.12,6.12,0,0,0,1.2-.33,3.93,3.93,0,0,0,.87-.45,4.67,4.67,0,0,0,.63-.51l1.47,1.52a6.69,6.69,0,0,1-2.28,1.47,9.59,9.59,0,0,1-3.52.55,6.13,6.13,0,0,1-2.6-.56A6.79,6.79,0,0,1,142,24.81a7.33,7.33,0,0,1-1.42-2.22,7.22,7.22,0,0,1-.52-2.71,7.09,7.09,0,0,1,.53-2.72A7.27,7.27,0,0,1,142,14.92a7,7,0,0,1,2.13-1.51A6.29,6.29,0,0,1,146.76,12.85Zm4.41,6.73a3.79,3.79,0,0,0-.3-1.78,4.72,4.72,0,0,0-1-1.46,4.59,4.59,0,0,0-1.44-1,4.29,4.29,0,0,0-1.73-.36,4.56,4.56,0,0,0-1.76.34,4.25,4.25,0,0,0-2.39,2.41,4.48,4.48,0,0,0-.31,1.85Z"/><path class="cls-3" d="M162.2,15a4.62,4.62,0,0,0-2,.43,4.88,4.88,0,0,0-1.53,1.13,5.24,5.24,0,0,0-1,1.57,4.58,4.58,0,0,0,0,3.56,4.82,4.82,0,0,0,1,1.56,5.08,5.08,0,0,0,1.54,1.1,4.64,4.64,0,0,0,2,.42,4.38,4.38,0,0,0,2-.42,5.36,5.36,0,0,0,1.39-.94l1.5,1.5a7.15,7.15,0,0,1-2.19,1.45,6.65,6.65,0,0,1-2.68.54,7,7,0,0,1-6.46-9.72,7.05,7.05,0,0,1,1.5-2.24,7.32,7.32,0,0,1,2.23-1.51,7,7,0,0,1,5.41,0,7.36,7.36,0,0,1,2.19,1.46l-1.5,1.5a6.21,6.21,0,0,0-1.39-.93A4.25,4.25,0,0,0,162.2,15Z"/><path class="cls-3" d="M175.7,12.88a5.89,5.89,0,0,1,2.38.48A5.55,5.55,0,0,1,180,14.68a6.16,6.16,0,0,1,1.24,2,6.49,6.49,0,0,1,.45,2.41v7.49h-2.12v-7a5.6,5.6,0,0,0-.23-1.55,4.8,4.8,0,0,0-.72-1.45,3.92,3.92,0,0,0-1.27-1.07,3.82,3.82,0,0,0-1.84-.43,4.24,4.24,0,0,0-1.59.3,4.38,4.38,0,0,0-1.29.79,3.69,3.69,0,0,0-.86,1.12,2.82,2.82,0,0,0-.32,1.28v8.06H169.3V7.49h2.12v7.27a4,4,0,0,1,.69-.67,5.65,5.65,0,0,1,1-.61,6.72,6.72,0,0,1,1.24-.44A6.22,6.22,0,0,1,175.7,12.88Z"/><path class="cls-3" d="M185.58,17a1.25,1.25,0,0,0,.64,1.14,5.8,5.8,0,0,0,1.6.63c.63.16,1.32.31,2.05.45a10.73,10.73,0,0,1,2.06.58,4.46,4.46,0,0,1,1.59,1.07,2.61,2.61,0,0,1,.64,1.85,3.24,3.24,0,0,1-.42,1.6,4.25,4.25,0,0,1-1.15,1.32,5.49,5.49,0,0,1-1.7.89,6.49,6.49,0,0,1-2.09.33,6.76,6.76,0,0,1-1.84-.25,5.59,5.59,0,0,1-1.55-.69,4.46,4.46,0,0,1-1.17-1.07,3.44,3.44,0,0,1-.67-1.32l2-.54a1.2,1.2,0,0,0,.25.69,2.57,2.57,0,0,0,.65.67,3.53,3.53,0,0,0,1,.5,3.81,3.81,0,0,0,1.3.21,4.17,4.17,0,0,0,1.38-.21,3.11,3.11,0,0,0,1-.53,2.33,2.33,0,0,0,.63-.74,2,2,0,0,0,.22-.86,1.29,1.29,0,0,0-.64-1.16,5.8,5.8,0,0,0-1.6-.63c-.63-.15-1.32-.29-2.05-.4a10,10,0,0,1-2.06-.56,4.57,4.57,0,0,1-1.59-1.06,2.63,2.63,0,0,1-.64-1.88,3.36,3.36,0,0,1,.42-1.64A4.37,4.37,0,0,1,185,14.08a5.67,5.67,0,0,1,1.71-.9,6.41,6.41,0,0,1,2.07-.33,6.69,6.69,0,0,1,1.86.26,5.85,5.85,0,0,1,1.58.71,4.65,4.65,0,0,1,1.17,1.08,3.41,3.41,0,0,1,.64,1.33l-2,.54a1.24,1.24,0,0,0-.25-.69,2.67,2.67,0,0,0-.66-.69,3.46,3.46,0,0,0-1-.53,3.79,3.79,0,0,0-1.29-.21,4.14,4.14,0,0,0-1.22.18,3.64,3.64,0,0,0-1,.49,2.41,2.41,0,0,0-.71.75A1.83,1.83,0,0,0,185.58,17Z"/></svg>